<svg version="1.2" xmlns="http://www.w3.org/2000/svg" viewBox="0 0 37 42" width="37" height="42">
	<title>logo5-svg</title>
	<style>
		.s0 { fill: #ffffff } 
		.s1 { fill: #028b85 } 
		.s2 { fill: #f2f2f2 } 
		.s3 { fill: #ffffff;stroke: #024d4a;stroke-width: .5 } 
	</style>
	<g id="Layer_2">
		<path id="Layer" class="s0" d="m1.9 25.8c0.2-1.2 1.2-7.5 12-15.6 0.1-0.1 0.2-0.1 0.3-0.2 0.8-0.5 4.9-2.5 10.2 0 0.2 0 0.3 0.1 0.4 0.2 1.2 0.8 7.8 5.6 11.4 15 0.4 1 0.5 2.1 0.1 3.1-1.1 3-4.6 9.1-15.2 9.7q-0.1 0-0.3 0c-1.9-0.1-18.6-1.4-18.7-11.9 0-0.2 0-0.3-0.2-0.3z"/>
		<path id="Layer" class="s1" d="m12 24.4c0 0 0.7-7.6 6-5.3 0 0 3 1.5 1.5 5.3 0 0-10.6 9.8-7.5 0z"/>
		<path id="Layer" class="s1" d="m24 24.3c0 0-2.2-6 0.8-6 0 0 5.2 2.3 6 9.1 0 0-4.5-0.7-6.8-3.1z"/>
		<path id="Layer" class="s1" d="m22.5 10c0 0-0.8-2.2 4.5-3 0 0 3-0.7 4.6 4.5 0 0 0.7 5.3-2.3 3.8 0 0-3-1.5-6.8-5.3z"/>
		<path id="Layer" class="s2" d="m19.8 37.6c0 0-3.8-1.4-7.6-5.9 0 0-0.7-4.6 7.2-7.2 0 0 11.7-1.2 13.2 6.4 0 0 0 2.2-7.9 6.3 0 0-1.8 1.2-4.9 0.4z"/>
		<path id="Layer" class="s1" d="m9.1 15c-1 0.3-2.1-0.4-2.3-1.4-0.4-1.7-0.2-4.4 3.2-6.3 0.3-0.1 0.6-0.2 0.9-0.2 1.7 0 7.4 0.4 5.5 3 0 0-2.9 3.5-7.3 4.9z"/>
		<path id="Layer" class="s1" d="m18.9 26.6c0 0 2.1-0.8 6.6 0 0 0 0.7 0.8-3.1 3.3 0 0-2.2-0.2-3.5-3.3z"/>
		<path id="Layer" class="s1" d="m22.5 33.9c0 0-3.8 1.1-4.9-1.7 0 0 4.1 1.3 9.4-2.5 0 0-1.5 3-4.5 4.2z"/>
		<path id="Layer" class="s0" d="m16.4 25.2c-0.8 0-1.5-0.7-1.5-1.5 0-0.8 0.7-1.5 1.5-1.5 0.8 0 1.5 0.7 1.5 1.5 0 0.8-0.7 1.5-1.5 1.5z"/>
		<path id="Layer" class="s3" d="m16.8 24.4c-0.2 0-0.4-0.2-0.4-0.4 0-0.2 0.2-0.4 0.4-0.4 0.2 0 0.4 0.2 0.4 0.4 0 0.2-0.2 0.4-0.4 0.4z"/>
		<path id="Layer" class="s0" d="m26.3 25.2c-0.8 0-1.5-0.7-1.5-1.5 0-0.8 0.7-1.5 1.5-1.5 0.8 0 1.5 0.7 1.5 1.5 0 0.8-0.7 1.5-1.5 1.5z"/>
		<path id="Layer" class="s3" d="m26.6 24.4c-0.2 0-0.4-0.2-0.4-0.4 0-0.2 0.2-0.4 0.4-0.4 0.2 0 0.4 0.2 0.4 0.4 0 0.2-0.2 0.4-0.4 0.4z"/>
	</g>
</svg>